<svg id="c-question" xmlns="http://www.w3.org/2000/svg" width="30.904" height="30.904" viewBox="0 0 30.904 30.904">
  <path id="Path_45" data-name="Path 45" d="M15.452,0A15.452,15.452,0,1,0,30.9,15.452,15.5,15.5,0,0,0,15.452,0Zm0,25.109a1.931,1.931,0,1,1,0-3.863,1.931,1.931,0,1,1,0,3.863Zm2.9-8.885c-.966.579-.966.773-.966,1.159v1.931H13.52V17.383a5.05,5.05,0,0,1,2.7-4.442c.966-.579,1.159-.773,1.159-1.352a1.825,1.825,0,0,0-1.931-1.931,2.028,2.028,0,0,0-1.738.966l-.966,1.738L9.464,10.43l.966-1.738a5.764,5.764,0,0,1,5.022-2.9,5.691,5.691,0,0,1,5.794,5.794C21.246,14.293,19.508,15.452,18.349,16.224Z" fill="#fff"/>
</svg>
