<svg id="Layer_1" data-name="Layer 1" xmlns="http://www.w3.org/2000/svg" viewBox="0 0 100.02 70.87"><defs><style>.cls-1{fill:#1d1d1b;}</style></defs><path class="cls-1" d="M204.74,128.5c-16.66-2.77-35.22-1.46-50.87,5.07-7.93,3.31-16.36,8.21-20.33,16.22-3.5,7.08-3,15.77,2.64,21.59a3.39,3.39,0,0,0,4.7.35,73.4,73.4,0,0,0,2,23.57c.73,3,5.4,3.81,6.82.89,3.33-6.84,7.24-14.91,15.62-16,9.31-1.22,19.16.25,28.54,0,14.68-.33,32.59-5.16,36.83-21.39C235,142.34,219.07,130.89,204.74,128.5Zm15.06,35.06c-9.7,11.31-27.1,9.28-40.42,9.09-7.79-.11-16.71-1.34-23.61,3.12a26.91,26.91,0,0,0-7.4,7.45,68.88,68.88,0,0,1,0-12.1c.31-3.49-3.58-4.42-5.88-2.81a3.56,3.56,0,0,0-1-2.21c-4.55-4.73-2.78-12,1.16-16.49,4.62-5.27,11.62-8.51,18.14-10.7,13.74-4.61,30.25-5.81,44.47-2.73,6.51,1.41,12.94,4.42,16.52,10.32C225.18,152.16,224,158.66,219.8,163.56Z" transform="translate(-131.34 -127.13)"/><path class="cls-1" d="M205.92,148.64l-46.85.29c-2.31,0-2.32,2.68,0,2.66l46.85-.29C208.23,151.29,208.24,148.62,205.92,148.64Z" transform="translate(-131.34 -127.13)"/><path class="cls-1" d="M206.21,158.56l-39,.32a1.5,1.5,0,0,0,0,3l39-.32A1.5,1.5,0,0,0,206.21,158.56Z" transform="translate(-131.34 -127.13)"/></svg>