<svg id="Layer_1" data-name="Layer 1" xmlns="http://www.w3.org/2000/svg" viewBox="0 0 70.04 20.82"><defs><style>.cls-1{fill:#1d1d1b;}.cls-1,.cls-2{stroke:#1d1d1b;stroke-miterlimit:10;stroke-width:3px;}.cls-2{fill:none;}</style></defs><polygon class="cls-1" points="10.95 3.39 13.33 8.22 18.67 9 14.81 12.77 15.72 18.08 10.95 15.57 6.17 18.08 7.08 12.77 3.22 9 8.56 8.22 10.95 3.39"/><polygon class="cls-1" points="34.94 3.39 37.33 8.22 42.66 9 38.8 12.77 39.71 18.08 34.94 15.57 30.17 18.08 31.08 12.77 27.22 9 32.55 8.22 34.94 3.39"/><polygon class="cls-2" points="59.1 3.39 61.48 8.22 66.82 9 62.96 12.77 63.87 18.08 59.1 15.57 54.32 18.08 55.23 12.77 51.37 9 56.71 8.22 59.1 3.39"/></svg>