<svg xmlns="http://www.w3.org/2000/svg" width="29.724" height="29.724" viewBox="0 0 29.724 29.724">
  <g id="Group_72" data-name="Group 72" transform="translate(-295.916 -133.401)">
    <g id="settings-gear" transform="translate(295.916 133.401)">
      <path id="Path_44" data-name="Path 44" d="M24.274,8.949,27.123,6.1l-3.5-3.5L20.775,5.449a11.005,11.005,0,0,0-3.436-1.437V0H12.385V4.013A11.005,11.005,0,0,0,8.949,5.449L6.1,2.6,2.6,6.1,5.449,8.949a11.005,11.005,0,0,0-1.437,3.436H0v4.954H4.013a11.005,11.005,0,0,0,1.437,3.436L2.6,23.62l3.5,3.5,2.846-2.849a11.005,11.005,0,0,0,3.436,1.437v4.013h4.954V25.711a11.005,11.005,0,0,0,3.436-1.437l2.846,2.849,3.5-3.5-2.849-2.846a11.005,11.005,0,0,0,1.437-3.436h4.013V12.385H25.711a11.005,11.005,0,0,0-1.437-3.436ZM14.862,19.816a4.954,4.954,0,1,1,4.954-4.954A4.954,4.954,0,0,1,14.862,19.816Z" fill="#4c7ad3"/>
    </g>
  </g>
</svg>
