<svg id="settings-gear" xmlns="http://www.w3.org/2000/svg" width="31.083" height="31.083" viewBox="0 0 31.083 31.083">
  <path id="Path_44" data-name="Path 44" d="M25.385,9.359l2.979-2.976L24.7,2.72,21.725,5.7a11.509,11.509,0,0,0-3.593-1.5V0H12.951V4.2A11.509,11.509,0,0,0,9.359,5.7L6.382,2.72,2.72,6.382,5.7,9.359a11.509,11.509,0,0,0-1.5,3.593H0v5.181H4.2a11.508,11.508,0,0,0,1.5,3.593L2.72,24.7l3.663,3.663,2.976-2.979a11.509,11.509,0,0,0,3.593,1.5v4.2h5.181v-4.2a11.509,11.509,0,0,0,3.593-1.5L24.7,28.363,28.364,24.7l-2.979-2.976a11.508,11.508,0,0,0,1.5-3.593h4.2V12.951h-4.2a11.509,11.509,0,0,0-1.5-3.593ZM15.542,20.722a5.181,5.181,0,1,1,5.181-5.181A5.181,5.181,0,0,1,15.542,20.722Z" fill="#fff"/>
</svg>
